<svg xmlns="http://www.w3.org/2000/svg" viewBox="0 0 68 55" fill="none" role="img" class="r-height-1pi2tsx r-width-13qz1uu r-pointerEvents-633pao"><path d="M23.9374 24.8703C30.4213 29.1929 45.01 33.5155 51.4939 35.1365C48.9724 38.7386 43.6052 46.1588 42.3084 47.0234C40.6874 48.104 19.6149 51.8863 10.4294 50.8056C1.24384 49.725 -1.45772 49.1847 0.703568 41.0798C2.4326 34.5959 10.0691 32.975 13.6713 32.975C8.48419 29.5169 9.34871 25.4106 10.4294 23.7897C13.5168 20.7021 17.3394 21.1063 20.125 22.2458C19.8967 22.0541 20.1953 22.2039 20.7306 22.512C21.5835 22.9135 22.3126 23.3711 22.8568 23.7897C22.1104 23.3304 21.2909 22.8345 20.7306 22.512C20.535 22.4199 20.3329 22.3308 20.125 22.2458C20.4073 22.4828 21.4952 23.2422 23.9374 24.8703Z" fill="#5F2B68"></path><path d="M41.9499 11.7582C41.7344 7.04586 42.2462 -0.380607 45.8084 0.0151957C50.6714 0.555518 53.373 6.49896 52.8326 12.9829C52.4004 18.1701 53.373 25.5906 53.9133 28.6524L49.0504 35.6766C44.3676 31.354 34.4617 21.4121 32.3004 16.225C30.1391 11.0379 32.1203 8.30025 33.381 7.57982C36.0681 6.74006 41.2606 6.52662 41.9499 11.7582Z" fill="#5F2B68"></path><path d="M63.9213 22.7089C60.8955 20.9798 57.6175 23.4293 56.3568 24.8702L53.9253 28.1121L53.9235 28.1146C50.951 32.0779 44.7937 40.3236 43.9294 41.6201C42.8487 43.2411 41.2278 44.8621 42.3084 51.346C43.1729 56.533 47.3514 54.2277 49.3326 52.4266C51.674 49.0046 57.3294 40.7556 61.2197 35.1363C66.0826 28.1121 67.7036 24.8702 63.9213 22.7089Z" fill="#E9A431"></path><path d="M63.2178 17.8306C63.2178 19.6317 62.8936 23.45 61.5968 24.3145M67.0001 20.5323C66.6398 21.9731 65.4872 25.071 63.7581 25.9355M58.3549 28.6371L57.8146 29.1774M60.5162 29.7177L59.9759 30.2581" stroke="black" stroke-width="0.7" stroke-linecap="round" stroke-linejoin="round"></path></svg>